<svg aria-hidden="true" style="position: absolute; width: 0; height: 0; overflow: hidden;" version="1.1" xmlns="http://www.w3.org/2000/svg" xmlns:xlink="http://www.w3.org/1999/xlink">
<defs>
<symbol id="icon-finger-top" viewBox="0 0 32 32">
<path stroke-linejoin="round" stroke-linecap="round" stroke-miterlimit="4" stroke-width="2.6667" d="M2.787 14.111c-0.015-0.184 0.008-0.369 0.068-0.544s0.155-0.335 0.28-0.47c0.125-0.136 0.277-0.244 0.446-0.318s0.352-0.112 0.536-0.112h2.55c0.354 0 0.693 0.14 0.943 0.391s0.391 0.589 0.391 0.943v13.333c0 0.354-0.141 0.693-0.391 0.943s-0.589 0.391-0.943 0.391h-1.44c-0.334 0-0.657-0.126-0.903-0.352s-0.398-0.537-0.426-0.87l-1.111-13.333h-0.001zM12 14.25c0-0.557 0.347-1.056 0.85-1.293 1.099-0.519 2.972-1.561 3.817-2.969 1.089-1.816 1.294-5.097 1.327-5.848 0.005-0.105 0.002-0.211 0.016-0.315 0.181-1.302 2.693 0.219 3.657 1.827 0.523 0.872 0.59 2.018 0.535 2.913-0.059 0.957-0.34 1.882-0.615 2.801l-0.587 1.958h7.238c0.206 0 0.409 0.048 0.594 0.139s0.345 0.225 0.469 0.389 0.209 0.355 0.247 0.558c0.038 0.202 0.029 0.411-0.027 0.609l-3.58 12.677c-0.079 0.28-0.247 0.526-0.479 0.701s-0.514 0.27-0.805 0.27h-11.324c-0.354 0-0.693-0.14-0.943-0.391s-0.39-0.589-0.39-0.943v-13.083z"></path>
</symbol>
</defs>
</svg>
